:SAMPLES-PER-SECOND 30
:FULLY-SPECIFIED
:DEGREES
1580
root  9.06913 38.7752 26.1652 149.114 75.9441 156.301
RightUpLeg  -15.2795 -3.09555 -10.8791
RightLeg  14.8117 4.66645 0.925894
RightFoot  -0.708109 -0.833139 8.8772
RightToes  5.82063e-011 0 -3.6325e-017
Spine  4.69131 -1.56377 -8.60556
Spine1  11.0894 -2.60399 0.843509
HEad  -18.5991 -3.31935 -1.4662
LeftShoulder1  0.202847 2.96951 -31.8548
LeftArm  5.3006 -15.3626 -48.0413
LeftForeArm  13.3362 -14.5127 -7.8869
LeftHand  -0.0110161 6.78269 1.94817
RightShoulder  -0.690363 -5.41084 29.497
RightArm  9.31239 0.240886 44.2044
RightForeArm  13.0611 10.6054 5.19197
RightHand  -0.0592966 3.15047 -1.04022
LeftUpLeg  9.83734 6.37749 -8.21161
LeftLeg  13.3747 3.98799 -0.305767
LeftFoot  -14.4568 0.255682 6.16065
LeftToes  -1.20963e-009 8.6283e-011 2.04439e-011
1581
root  10.1351 38.6978 25.9198 149.6 75.477 156.049
RightUpLeg  -14.797 -8.71201 -9.31915
RightLeg  4.07273 7.85224 0.125287
RightFoot  -0.580271 -0.930095 9.82817
RightToes  5.82063e-011 0 -3.6325e-017
Spine  3.90169 -1.67013 -7.60797
Spine1  11.0266 -2.41195 0.618686
HEad  -18.2653 -4.10775 -2.19394
LeftShoulder1  0.23038 2.89892 -31.9923
LeftArm  7.98624 -16.3266 -48.7316
LeftForeArm  12.4746 -16.4795 -7.06352
LeftHand  -0.0215952 5.8625 2.03014
RightShoulder  -0.752264 -5.5687 29.7702
RightArm  8.52791 0.0520296 44.1365
RightForeArm  14.3839 8.78974 5.11939
RightHand  -0.00956442 3.16799 -0.364938
LeftUpLeg  11.5062 6.30324 -8.28681
LeftLeg  12.1907 3.46591 -0.557173
LeftFoot  -15.3168 0.31578 6.45533
LeftToes  -1.20963e-009 8.6283e-011 2.04439e-011
1582
root  11.2953 38.5105 25.6961 149.943 74.8743 156.304
RightUpLeg  -13.8372 -10.0902 -8.89347
RightLeg  -2.99554 5.42563 0.197363
RightFoot  -1.82947 -0.963945 11.358
RightToes  5.82063e-011 0 -3.6325e-017
Spine  3.66791 -1.69267 -6.95263
Spine1  11.231 -2.4122 0.835424
HEad  -18.4142 -3.5996 -1.86287
LeftShoulder1  0.180487 3.03357 -32.2629
LeftArm  9.85955 -17.2666 -49.4584
LeftForeArm  11.6782 -17.6463 -6.54816
LeftHand  -0.0203582 6.1343 1.67052
RightShoulder  -0.726472 -5.51191 29.5056
RightArm  7.94661 -0.382039 44.2793
RightForeArm  15.2223 7.57527 4.90897
RightHand  -0.00154857 2.58334 -0.224308
LeftUpLeg  13.7144 6.5316 -8.03523
LeftLeg  11.7676 2.56284 -0.723554
LeftFoot  -16.7843 0.391281 6.09304
LeftToes  -1.20963e-009 8.6283e-011 2.04439e-011
1583
root  12.4872 38.264 25.5169 150.388 74.2782 156.867
RightUpLeg  -14.1007 -9.85034 -8.50554
RightLeg  -2.8263 2.16821 0.502163
RightFoot  -2.64927 -0.792382 10.2838
RightToes  5.82063e-011 0 -3.6325e-017
Spine  3.87225 -1.79893 -6.17866
Spine1  11.5127 -2.45202 0.683289
HEad  -19.135 -2.72813 -1.03502
LeftShoulder1  0.185946 3.01662 -32.0964
LeftArm  11.372 -17.4258 -49.8152
LeftForeArm  11.2621 -18.8144 -5.97308
LeftHand  -0.0266239 5.63199 1.36787
RightShoulder  -0.755219 -5.56105 30.0421
RightArm  8.401 -0.169814 43.7353
RightForeArm  15.1045 6.56578 5.05276
RightHand  0.0144085 1.85028 0.0658388
LeftUpLeg  15.8389 6.70472 -7.67455
LeftLeg  12.0507 1.69446 -0.612354
LeftFoot  -18.5997 0.48233 5.84166
LeftToes  -1.20963e-009 8.6283e-011 2.04439e-011
1584
root  13.6667 38.1388 25.3512 153.007 74.4369 159.358
RightUpLeg  -15.7754 -9.34593 -7.07276
RightLeg  2.17271 0.488274 0.96252
RightFoot  1.98022 -0.529447 4.89764
RightToes  5.82063e-011 0 -3.6325e-017
Spine  3.92135 -1.89231 -4.22764
Spine1  11.9676 -2.50002 0.71868
HEad  -19.6242 -3.29023 -2.23981
LeftShoulder1  0.205238 2.95752 -31.4904
LeftArm  11.8129 -16.605 -50.1308
LeftForeArm  10.8723 -19.3064 -5.72896
LeftHand  -0.0252065 5.62839 1.69887
RightShoulder  -0.788213 -5.63289 30.3698
RightArm  8.33458 -0.13044 43.6122
RightForeArm  15.5777 5.80935 5.02228
RightHand  0.034747 2.5086 0.315956
LeftUpLeg  17.9733 6.76686 -6.62643
LeftLeg  11.3665 1.15328 -0.245451
LeftFoot  -19.6039 0.478963 4.99106
LeftToes  -1.20963e-009 8.6283e-011 2.04439e-011
1585
root  14.9248 38.0466 25.1914 157.513 74.331 163.778
RightUpLeg  -17.2646 -8.56485 -5.52266
RightLeg  6.83812 1.73797 0.671279
RightFoot  8.32347 -0.0961378 0.745239
RightToes  5.82063e-011 0 -3.6325e-017
Spine  4.13252 -2.21766 -2.75896
Spine1  11.9148 -3.18819 2.05633
HEad  -19.8485 -2.68773 -3.18136
LeftShoulder1  0.160734 3.08347 -32.0662
LeftArm  12.0296 -15.4102 -49.2051
LeftForeArm  10.3581 -19.0082 -5.95259
LeftHand  -0.0217107 6.01497 1.71778
RightShoulder  -0.779372 -5.61552 30.247
RightArm  8.31843 -0.0148542 43.3244
RightForeArm  16.4663 5.2919 4.9762
RightHand  0.0837366 2.35389 1.06115
LeftUpLeg  19.7573 6.83455 -4.87491
LeftLeg  11.6133 -0.0177654 0.0645049
LeftFoot  -20.2337 0.400096 3.59895
LeftToes  -1.20963e-009 8.6283e-011 2.04439e-011
1586
root  16.3103 37.9077 25.0163 162.817 74.1242 169.594
RightUpLeg  -17.6991 -8.53295 -4.14744
RightLeg  12.1744 2.2033 0.67208
RightFoot  9.83016 -0.0691192 0.720827
RightToes  5.82063e-011 0 -3.6325e-017
Spine  4.50996 -2.61689 -0.358913
Spine1  11.7232 -3.57933 2.16017
HEad  -19.919 -3.1767 -4.84223
LeftShoulder1  0.212482 2.95348 -32.6093
LeftArm  10.5144 -13.7303 -48.3637
LeftForeArm  12.1181 -17.5845 -6.68056
LeftHand  -0.0219447 5.80743 1.98214
RightShoulder  -0.840335 -5.7726 30.4077
RightArm  8.32456 -0.0146539 42.5596
RightForeArm  15.7785 5.3178 4.96975
RightHand  0.0654244 2.20415 0.818808
LeftUpLeg  21.4926 6.77637 -2.46492
LeftLeg  13.5788 -1.45231 0.17086
LeftFoot  -20.8097 0.239878 1.38724
LeftToes  -1.20963e-009 8.6283e-011 2.04439e-011
